<svg t="1587451887498" class="icon" viewBox="0 0 1024 1024" version="1.1" xmlns="http://www.w3.org/2000/svg" p-id="1291" width="160" height="160"><path d="M929.59572285 1118.83351371H102.57394522c-110.6047362 0-201.09952038-90.49478418-201.09952041-201.09952039V88.19847168c0-110.6047362 90.49478418-201.09952038 201.09952041-201.09952038h827.02177763c110.6047362 0 201.09952038 90.49478418 201.09952039 201.09952038v829.53552164c0 110.6047362-90.49478418 201.09952038-201.09952039 201.09952039z" fill="#4E8DF6" p-id="1292"></path><path d="M885.08592989 512.84144989c-62.13783703-62.13783703-163.62963753-62.13783703-225.76747456 0L168.42954273 1003.73036249l-8.28504494 8.28504493h693.87251358c91.13549431 0 165.70089876-74.56540445 165.70089877-165.70089876V649.54469137l-134.63198025-136.70324148z" fill="#2166CC" p-id="1293"></path><path d="M698.67241878 1012.01540742l-352.11440988-354.18567111c-62.13783703-62.13783703-163.62963753-62.13783703-225.76747456 0L11.0136889 769.67784298V846.31450866c0 91.13549431 74.56540445 165.70089876 165.70089877 165.70089876h521.95783111z" fill="#629FF9" p-id="1294"></path><path d="M142.37657428 77.50271173a32.42648211 32.42648211 0 0 1 5.02810747-0.40110738h5.0286669c11.43128037 0 22.7931921 0.29929211 34.09692368 0.89787634a1134.30311543 1134.30311543 0 0 0 34.09748312 1.29227061h2.95376139c1.57198286 0 3.18256601 0.03132777 4.83063061 0.10125584 1.64247035 0.07048748 3.15067883 0.26740492 4.53189793 0.59858423s2.19630061 0.76361447 2.46370554 1.29227059c4.72881535 5.30837915 8.37626313 11.57784959 10.93507084 18.80785193 2.55824827 7.23727484 3.84436522 14.36602133 3.84436519 21.39966565v4.57609246c0 1.72526517-0.10181526 3.48185812-0.29313843 5.27705137-0.19691742 1.78848014-0.46432235 3.48129871-0.78878858 5.07286143-0.33117931 1.59100329-0.75746078 2.98508918-1.27940382 4.18169818-0.66235859 1.33031147-1.4449935 2.52076683-2.36804395 3.58367339-0.92305043 1.06290656-1.83938778 2.12581313-2.76243822 3.18256604v0.40054792c0 0.66851229 0.10181526 1.16528126 0.29313844 1.49590115 0.19691742 0.33117931 0.42628147 0.82794827 0.6869733 1.49590113 1.4449935 2.78761231 2.5655208 5.67144564 3.34815569 8.65653481a208.61051741 208.61051741 0 0 1 2.17056709 9.05708276 167.19576174 167.19576174 0 0 1 1.57869595 11.04975287 104.68846449 104.68846449 0 0 1 0.59187112 11.2472297c0 5.84318898-1.41310631 10.98597847-4.23931892 15.42892786-2.82621262 4.44910311-6.44121377 8.15976586-10.83940924 11.14485505-4.40490857 2.98508918-9.29931357 5.21271755-14.68433387 6.67057783-5.39117397 1.46401393-10.64193239 2.18958753-15.76626088 2.18958751-9.33120078 0-18.82127809-0.69368639-28.47694508-2.08777226a935.44840202 935.44840202 0 0 1-28.08255081-4.48099029 173.88368172 173.88368172 0 0 0-0.49005587-6.17380886 62.62645467 62.62645467 0 0 1-0.29257902-6.17436828 557.34344755 557.34344755 0 0 0-1.47688069-40.7104402 920.9005677 920.9005677 0 0 1-2.06819241-40.7104402 224.37677827 224.37677827 0 0 0-1.77617282-20.80108145c-0.92305043-6.96986993-1.38121911-13.83736518-1.38121909-20.60360457 0-1.19660902 0.06377438-2.38706437 0.19747685-3.5836734 0.12698935-1.18374225 0.25453814-2.31042321 0.38824059-3.37332978z m83.36879655 25.47898916c0-0.6617992-0.75746078-1.12612154-2.26566926-1.39352646-1.5087679-0.26740492-3.25249409-0.4268409-5.21943064-0.49676896-1.97309023-0.06377438-3.94002681-0.10181526-5.91311703-0.10181525s-3.34815567-0.06377438-4.13750367-0.19747685a214.59524078 214.59524078 0 0 0-20.69255306-1.78848016 539.46647802 539.46647802 0 0 0-20.69255308-0.40054794h-2.95376141c-0.13314302 5.70892709 0.10237467 11.41225994 0.68809216 17.12174644a297.77998665 297.77998665 0 0 1 1.27884441 17.12174647 524.93990183 524.93990183 0 0 0 19.90376452 1.196609 489.36218151 489.36218151 0 0 0 19.90320512 0.40110737c3.67877556 0 6.99504404 0.03188721 9.95495908 0.10181527 2.9537614 0.06992809 5.4487947-0.29929211 7.49181301-1.09479377 2.03630521-0.79550166 3.60828807-2.32328998 4.72881534-4.57609246 1.11381419-2.25392134 1.67435754-5.70333284 1.67435755-10.34991278 0-0.9292041-0.10181526-2.11965945-0.29313844-3.58367339a165.59580767 165.59580767 0 0 0-0.68753273-4.57609247c-0.26684549-1.59156272-0.6617992-3.04886357-1.18374225-4.37917505-0.53480982-1.34317823-1.06290656-2.33615675-1.58484962-3.0041096zM211.94604652 157.12895831c-3.28382185 0-6.83616747 0.03188721-10.64249181 0.10181527-3.81247801 0.06992809-7.68257676 0.06992809-11.62875722 0a127.5387179 127.5387179 0 0 1-11.52694197-0.69984004c-3.74254995-0.40110736-7.19252089-0.9929785-10.34935337-1.78848016v2.38650493c0 7.16734676 0.03188721 14.36602133 0.10181526 21.59658308 0.06377438 7.23727484 0.42628147 14.36602133 1.081927 21.39910624l1.57869596 1.19716844c6.4350601 0.66795285 12.83823301 1.32975205 19.21623181 1.99155122 6.37072628 0.66851229 12.83767358 0.9929785 19.41314921 0.99297852 1.05003981 0 2.56496138-0.06377438 4.53133851-0.19691742 1.97364967-0.12754878 3.97191401-0.4268409 6.00877863-0.89787633 2.03686463-0.46432235 3.87681183-1.09479377 5.51872274-1.89029542 1.64191093-0.79550166 2.66062297-1.78848014 3.05501725-2.98508917 0.39439427-0.26740492 0.71941991-0.89731691 0.98682483-1.89085482 0.26069183-0.99241908 0.42628147-2.08721284 0.49005587-3.28382184 0.06321497-1.19716846 0.12698935-2.35517716 0.19691742-3.48185816 0.06377438-1.12668097 0.10181526-1.95406981 0.10181526-2.48887962 0-5.57578405-0.46432235-10.87745012-1.3812191-15.92513744-0.92305043-5.04097422-2.29755646-10.15187653-4.13694423-15.3265532-2.10063902 0-4.2068723 0.19691742-6.30807075 0.59802479a34.12489492 34.12489492 0 0 1-6.3075113 0.59187113zM267.91423073 133.8401161c0-1.45786028 0.16558967-2.68635649 0.49005587-3.68548867 0.32446623-0.9929785 1.41310631-2.02399785 3.25249408-3.0869044a383.63374687 383.63374687 0 0 1 7.68873042-3.78059083c2.4950333-1.19716846 5.02866688-2.22147472 7.58747457-3.08746384 2.55880769-0.85927605 5.28935871-1.52107523 8.17878629-1.99155126 2.889987-0.46544121 6.04066582-0.69424582 9.45874957-0.69424579 15.37130717 0 26.83447474 3.48185812 34.39006213 10.45116863 7.55502797 6.96986993 11.32946508 17.09041867 11.32946509 30.35437372 0 6.76623941-0.13370246 13.83792459-0.39439425 21.2021888a1243.02447119 1243.02447119 0 0 1-0.98682485 21.99769046 215.70457957 215.70457957 0 0 0-0.59187111 9.75076915c-0.13370246 3.31626847-0.26740492 6.50554759-0.39439429 9.55441116 0 0.66795285-0.22936404 1.19660902-0.68809214 1.59100329-0.46432235 0.40110736-1.01815261 0.59858422-1.67379812 0.59858423-0.52809673 0-1.05003981 0.06992809-1.57813655 0.19691743-0.26740492 0-0.59187113 0.03188721-0.98682483 0.10181525s-0.7255736 0.10181526-0.98626538 0.10181527c-0.78934799 0.13426189-1.71239841 0.23551772-2.76243822 0.29929208a41.97362075 41.97362075 0 0 1-2.75628456 0.10181527c-0.78878855 0-1.711839-0.10181526-2.76243821-0.2992921a198.99960438 198.99960438 0 0 1-2.56496135-0.49620953h-0.39495371c-0.13314302 0-0.19691742-0.06377438-0.19691743-0.19747686-0.66235859-0.13370246-1.4449935-0.19691742-2.36804395-0.19691742l-0.98626541 0.19691742c-0.66235859 0-1.54680876 0.10181526-2.66062294 0.29929211a47.97624569 47.97624569 0 0 0-3.25249409 0.69368638c-1.83938778 0.53480982-3.94002681 0.9929785-6.30807072 1.39408589-2.36748452 0.40110736-4.86251782 0.59858422-7.49125357 0.59858421-6.70246502 0-12.48187958-0.99353793-17.34495684-2.98564859-4.86251782-1.99211067-8.86631901-4.67790772-12.02315149-8.06410426-3.15067883-3.38619654-5.51872276-7.36482362-7.09741873-11.94762919-1.57813654-4.57609246-2.36748452-9.45819013-2.36748452-14.63286682 0-0.9292041 0.19747685-2.48887963 0.59187116-4.67846714 0.39439427-2.18958753 0.95493763-4.48099028 1.6737981-6.86749525 0.71941991-2.38706437 1.54065509-4.57609246 2.46370554-6.56876258 0.91633734-1.99211067 1.90260275-3.31626847 2.95320197-3.98478074l2.95376139-1.5910033 2.36748452-1.39408588v0.19747684c1.57813654-0.9292041 3.48129871-1.75659295 5.71564018-2.48887961 2.23378207-0.7255736 4.59567233-1.29227062 7.09685929-1.69281855 2.4950333-0.40110736 4.92685163-0.69368639 7.29433615-0.89787635 2.36804393-0.19691742 4.33442107-0.29873269 5.91311705-0.29873267 2.62873577 0 5.09188186 0.13370246 7.38999774 0.40054793 2.29755646 0.26740492 4.5632257 0.53480982 6.79756715 0.79606109l2.5588077 0.59858421c0.52194307 0 1.01815261 0.06936865 1.4768807 0.19691743 0.45816867 0.13370246 0.95437821 0.19747685 1.47688069 0.19747685 0.26069183-0.92976353 0.36250708-1.85896763 0.29257902-2.78817175a34.27873666 34.27873666 0 0 1-0.09566159-2.59013546c0-1.59156272-0.16558967-3.38675597-0.49005586-5.37215354a131.8854463 131.8854463 0 0 0-1.081927-5.77326091c-3.28438129-1.45786028-6.89994186-2.85138671-10.83996867-4.1816982-3.94002681-1.32415781-7.55502797-1.9926701-10.83940925-1.99267008a39.29285851 39.29285851 0 0 0-14.0919033 2.59069491c-4.53189793 1.72526517-8.24927378 3.18312543-11.1325477 4.37917501v-0.19747686l-1.77617282 1.19716845c-0.6617992 0.53425042-1.27940384 0.86542972-1.87127496 0.99241908-0.59187113 0.13426189-1.34933191 0.19747685-2.26566927 0.19747685l-1.18374225-0.19747685c-0.39495369 0-0.726133-0.06321497-0.98682481-0.19691742-0.26740492 0-0.52809673-0.06377438-0.78878858-0.19747684l-0.78990739-0.79550167c-1.05003981-3.44997093-1.57813654-6.70246502-1.57813652-9.75132858v-1.58484961z m57.55247439 59.51885154c0.12698935-2.5202074 0.26069183-5.07286143 0.39439428-7.66299688 0.12754878-2.59069489 0.32446623-4.48099028 0.59187114-5.67144566-0.78878855-0.26740492-2.23378207-0.49620953-4.33442109-0.6936864a104.99726681 104.99726681 0 0 0-6.70190559-0.40110738c-2.36804393-0.06377438-4.60238543-0.12698935-6.70302444-0.19747682-2.10007959-0.06321497-3.41808374-0.10181526-3.93946737-0.10181527-2.889987 0-5.25747151 0.10181526-7.09741872 0.29929209-1.83938778 0.19747685-3.31570906 0.70039949-4.43623634 1.49590115-1.11996787 0.79550166-1.87127497 1.89029541-2.26566926 3.28382186-0.39495369 1.39464529-0.59243055 3.28494073-0.59243056 5.67144563 0 6.10444021 1.64247035 10.38795369 4.92685164 12.83879245 3.28382185 2.45643301 8.40815033 3.68492922 15.37130718 3.68492921 1.57869596 0 3.84436522-0.16558967 6.79812661-0.49620952s5.41634806-0.82794827 7.38999772-1.49590115c0-0.79550166 0.03132777-1.75659295 0.09510218-2.88327388a52.49080147 52.49080147 0 0 1 0.29257901-3.28438129v-1.59156271c0-0.26740492 0.03188721-0.5594245 0.10181526-0.89731693 0.06377438-0.33117931 0.09566159-0.62991201 0.0956616-0.89731691v-0.99969159z m36.85320822 9.55441114l-0.20363051-0.39495369 0.19747686 0.19747685v0.19747684z m13.39821696-71.66395757c2.23434148-1.32359838 4.10561646-2.35517716 5.61438433-3.08690443a99.21505511 99.21505511 0 0 1 4.6337132-2.08777226l2.95320197-0.99297849v-0.19747686c1.31129105-0.52809673 2.88942757-0.9929785 4.72937478-1.39352644 1.83938778-0.40110736 3.48129871-0.59858422 4.9262922-0.59858424 11.69197221 0 22.07377218 2.9218742 31.13756803 8.7583501 1.05003981 0.53480982 2.13252623 1.26038341 3.2524941 2.18958751 1.11381419 0.9292041 1.99882377 1.72470576 2.66062295 2.38706435 0.26069183 0.26684549 0.78878855 0.73172725 1.57869596 1.39352648 0.78878855 0.66851229 1.31073162 1.12668097 1.57813653 1.39408584v0.19747685c0 0.13370246 0.03188721 0.23495829 0.0956616 0.29873271 0.06377438 0.07048748 0.10181526 0.16558967 0.10181526 0.29929211l0.19747685 1.59156271-0.19747685 1.99155123a83.15621523 83.15621523 0 0 1-0.98682482 3.18312547 15.93408822 15.93408822 0 0 1-1.57813656 3.38619652 9.46993804 9.46993804 0 0 1-2.46314609 2.68579705c-0.98682484 0.73228668-2.1386799 1.09479377-3.44997093 1.09479379-1.57869596 0-3.41808374-0.7255736-5.51872275-2.18958752-2.10679269-1.45730084-3.87625241-2.91460169-5.32124592-4.37917504l-2.36748452-1.99155125c-0.39439427 0-0.7255736-0.13426189-0.98682481-0.40166682h0.19747682l-4.33442105-1.196609a69.03857837 69.03857837 0 0 0-6.60064976-1.99211067c-2.17056709-0.52809673-4.43623633-0.79550166-6.79756718-0.79550164l-1.97309024 0.19747684c-2.23434148 0.66795285-4.3349805 2.12581313-6.30807074 4.37861561-1.97309023 2.26007501-2.9537614 4.31596005-2.9537614 6.17436828 0 2.38706437 0.59243055 4.34672842 1.77617284 5.87507618 1.18430167 1.5272289 2.75628454 2.78761231 4.72937475 3.78059081 1.97309023 0.9929785 4.16883143 1.76330604 6.60064975 2.29140279 2.43125889 0.53480982 4.95817942 1.06290656 7.58691517 1.59100328 4.46812354 0.66851229 9.03190867 1.72526517 13.69750905 3.18312546 4.65944673 1.46345451 8.30633508 3.51933957 10.93507084 6.17380884 1.31129105 1.33031147 2.36804393 2.75572512 3.15067883 4.27735978 0.78878855 1.5272289 1.5087679 3.22060688 2.17056705 5.07957452l1.18374228 3.58311397v-0.19747685a22.39264415 22.39264415 0 0 1 1.27940385 3.88240609c0.32446623 1.39408587 0.49005587 2.81949952 0.49005586 4.27735979l-0.19747686 2.78817173c-0.52809673 5.57578405-2.00497744 10.22236403-4.43623633 13.93302676-2.43125889 3.71681642-6.79756718 7.10301297-13.1056379 10.15187652-0.26740492 0.13426189-1.83938778 0.59858422-4.72881538 1.39408588-2.889987 0.79550166-6.24429634 1.46401393-10.05062068 1.99211067l-0.59187113 0.19747684h-1.77561339c-5.12432849 0-10.34935338-0.6617992-15.6711587-1.99211068-5.32068647-1.32415781-9.94824599-3.38619654-13.89442647-6.17436828-0.13426189 0-0.49005587-0.13370246-1.08192702-0.40054795a33.51176565 33.51176565 0 0 1-1.27940382-0.59858422l-1.77617282-1.19660902c-1.05003981-0.6617992-2.03630521-1.59100329-2.9537614-2.78761232-0.92249101-1.19716846-1.83882834-2.38706437-2.75572511-3.58367338l-1.77561338-1.99211066-2.75628454-4.37917506a214.8581703 214.8581703 0 0 1 0.78934797-4.87594398c0.26125124-1.52107523 0.59187113-2.68579706 0.98682483-3.4812987 0.26069183-1.59156272 1.01815261-2.9151611 2.26566924-3.98478078 1.24751664-1.06290656 2.78817173-1.92218261 4.63371321-2.59013546l0.39495368 0.40054795c1.31073162 1.06290656 2.46314611 2.15770032 3.44941153 3.28438127 0.98682484 1.12668097 1.99882377 2.42510524 3.05557665 3.88240606h-0.19747685c0.78878855 0.26740492 1.34261881 0.70039949 1.6737981 1.29227065 0.32446623 0.59858422 0.49005587 1.09479377 0.49005588 1.49590111 3.41808374 2.26007501 7.58747458 4.44910311 12.51432622 6.56876257 4.9262922 2.12581313 9.75692283 3.18256601 14.48629762 3.18256601 0.65564551 0 1.70624474-0.13426189 3.15067879-0.40110735 1.4449935-0.26740492 2.75628454-0.79550166 3.94002681-1.59100332 1.05003981-1.45786028 1.97309023-3.18312543 2.75572513-5.17467667 0.78934799-1.9926701 1.18430167-3.91485269 1.18430166-5.77326091 0-1.19716846-0.06992809-2.29140277-0.19747681-3.2843813a21.02764837 21.02764837 0 0 0-0.59187115-2.88327391l-0.3949537-1.19716842-0.98626538-0.99241909c0-0.13426189-0.09510217-0.29929211-0.29257905-0.49676897-0.19747685-0.19691742-0.36306651-0.36250708-0.49061528-0.49620952-2.4950333-0.9292041-4.9262922-1.66149081-7.29433613-2.18958752a123.44932475 123.44932475 0 0 0-7.29377674-1.39408589c-2.889987-0.52809673-5.74808681-1.06290656-8.57374-1.59100331-2.82621262-0.52865616-5.3531331-1.32415781-7.58747458-2.38706435h0.19747685a25.12655172 25.12655172 0 0 1-7.88620725-4.18169819c-2.36804393-1.85840822-4.43623633-3.94618047-6.20569606-6.26947044-1.77617281-2.32328998-3.15067883-4.78028242-4.13750366-7.3642642-0.9862654-2.59069489-1.4768807-5.00964646-1.47688071-7.26916204 0-1.99211067 0.22936404-4.14365731 0.68809215-6.4669473 0.45760925-2.32273056 1.20891636-4.48099028 2.26566926-6.4669473 0.65564551-0.40054795 1.05003981-0.79550166 1.18374224-1.1960496 0.12754878-0.40110736 0.26125124-0.79606107 0.39439428-1.19716844h-0.19691743c0-0.12698935 0.03188721-0.16503022 0.10181529-0.10181525 0.06377438 0.07048748 0.10181526 0.03188721 0.10181525-0.10181527 0.26069183-0.6617992 0.59187113-1.39352645 0.98626541-2.18958753s0.91689676-1.39352645 1.57869594-1.78848016l3.94618049-2.17616132z m79.22569862 42.40381819c0-4.37917505 0.19691742-8.75835007 0.59187114-13.13752514 0.39439427-4.64657995 1.80134692-9.15889802 4.23875951-13.53807305a47.85540999 47.85540999 0 0 1 9.1656111-11.74343923c3.67933498-3.44997093 7.78439201-6.23758325 12.31628994-8.3633964 4.53189793-2.12021887 9.16561111-3.18312543 13.8949859-3.18312542 4.07372926 0 7.65068955 0.13426189 10.73759397 0.40110735 3.08690443 0.26740492 6.73435221 1.12668097 10.93507084 2.59013546 0.12754878 0.13426189 0.4587281 0.33173873 0.98682482 0.59858424 0.39439427 0.26740492 0.85256294 0.49676896 1.38121913 0.69368638 0.52194307 0.19747685 1.24751664 0.49676896 2.17056708 0.89787634 1.44443408 0.66851229 3.64744778 2.18958753 6.60009032 4.57609245 2.9537614 2.38706437 5.84318898 5.17467668 8.6694016 8.36339639 2.82621262 3.18312543 5.18754345 6.56932197 7.09685927 10.15243593 1.90316217 3.58367339 2.59013547 7.03364432 2.06875184 10.3493534 0 0.79606107-0.06377438 1.78903958-0.19747687 2.98564858s-0.26740492 2.38706437-0.39439427 3.5836734a202.45349127 202.45349127 0 0 1-0.39495371 3.28382186c-0.13370246 0.9929785-0.26740492 1.76330604-0.39439428 2.29140277 0 1.06290656-0.52809673 1.85896763-1.57869595 2.38706436-1.05003981 0.53480982-2.26566925 0.89731691-3.64744779 1.09479377a30.63128887 30.63128887 0 0 1-4.33386164 0.29929212h-4.63427261c-9.45819013 0-18.45821156-0.19747685-27.00006441-0.59858425a1179.61370337 1179.61370337 0 0 1-27.00062381-1.59100327c0.91689676 4.64657995 1.87127497 8.39528358 2.85809982 11.24667027 0.98682484 2.85865923 2.72439737 5.93885058 5.21943065 9.25511903l-0.19747686-0.40110736c4.20127806 2.26007501 8.33822228 4.04799574 12.41810519 5.37215354 4.07372926 1.33031147 8.21067347 1.99211067 12.41810522 1.99211067 3.15067883 0 6.04066582-0.36250708 8.67555525-1.09479376 2.62929518-0.7255736 4.95817942-1.59100329 6.99504402-2.59013547 2.03686463-0.99353793 3.81303744-2.02455728 5.3212459-3.08746385 1.5087679-1.06290656 2.72439737-1.99211067 3.64744779-2.78761231a72.61330098 72.61330098 0 0 0 3.34759625-2.38706439 28.00982564 28.00982564 0 0 1 1.38177852-0.99297849c1.31073162 0 2.36748452 0.59858422 3.1501194 1.78848015 0.78934799 1.19716846 1.38177854 2.52076683 1.77617282 3.98478078a20.40277117 20.40277117 0 0 1 0.68697328 4.48099028c0.06377438 1.5272289 0.10237467 2.55824827 0.10237468 3.08690442v4.37917506c0 0.26740492-0.03188721 0.59858422-0.10237468 0.99297848-0.06992809 0.40054795-0.36250708 0.73172725-0.88445012 0.9929785-4.99677968 4.91342544-10.01873349 8.66268848-15.07872817 11.24667028-5.05999465 2.59013547-11.26625014 3.88240608-18.62380125 3.88240609-11.96049594 0-22.04244441-2.5520946-30.25311789-7.66299689-8.21067347-5.10474862-14.74754885-13.10563792-19.61062609-23.98980113a263.1521691 263.1521691 0 0 1-3.05501723-9.45819013c-0.98011174-3.24634043-1.47016761-6.79141351-1.47016762-10.64249181z m68.97704168-18.31835549l-0.39439427-0.19747684c-2.36748452-2.52076683-4.66560038-4.44294944-6.89938244-5.7732609-2.23434148-1.32359838-4.57049823-2.29140277-6.99560345-2.8832739-2.43125889-0.59858422-4.99622026-0.96109131-7.68873043-1.09479377a186.0315849 186.0315849 0 0 0-8.77121684-0.19747687c-1.05003981 0-2.29755646 0.26740492-3.74254994 0.79606108a23.36268623 23.36268623 0 0 0-4.2387595 2.08777229 33.4580609 33.4580609 0 0 0-3.94002681 2.88942755c-1.24751664 1.06290656-2.1386799 2.18958753-2.66062294 3.38619654 7.75250482 0.40110736 15.40319437 0.76361447 22.95878177 1.09479376 7.55502797 0.33117931 15.14194313 0.49676896 22.76130487 0.49676896h0.98626541l-1.37506543-0.6047379z m-331.47020871 265.35742052c14.75426194-10.43270762 34.09692368-15.65213827 58.0296635-15.65213825 26.0456862 0 47.94156137 4.1816982 65.68035306 12.53894088 17.73935111 8.35780213 26.60622954 18.69428874 26.60622952 31.00442501 0 12.63460249-10.4388613 23.41023737-31.3221781 32.3213103s-46.17825533 13.36632974-75.87754296 13.36632974c-33.48603214 0-61.30173744-6.26947043-83.43257096-18.80841133-22.1308335-12.53894091-33.19960677-28.29904811-33.19960677-47.28591587 0-21.18876263 11.94706975-39.08699029 35.84792241-53.7013961 23.89358011-14.61384639 53.13469907-21.9210493 87.71552493-21.92104928 21.87685476 0 41.46174731 3.11263796 58.74908343 9.33120077s25.93100417 13.28353491 25.93100415 21.18932204c0 10.10712258-11.67966486 15.16096358-35.02668721 15.16096354-12.57698175 0-23.03486349-1.10094743-31.37252632-3.30340172 0.44530191-2.46314611 0.67410653-4.50616441 0.67410652-6.12290122 0-9.59189259-9.04421601-14.38504176-27.13376684-14.38504176-15.33382572 0-26.14134777 3.46899137-32.42983864 10.40026101-6.29464453 6.93798273-9.43916971 18.8917656-9.43916972 35.86694281z m40.90176338 5.25075843c-11.16443488 0-20.55885062 2.31657687-28.19723284 6.95029007-7.63782279 4.63371319-11.45086025 10.34935338-11.4508602 17.15419308 0 6.47925465 3.49472489 11.82623407 10.4897689 16.03981945 6.98889036 4.21358539 15.91227067 6.32037807 26.75167992 6.32037808 25.08459488 0 37.62409521-7.90578713 37.62409522-23.71624254 0-6.80428027-3.22060688-12.29726949-9.66853377-16.472814-6.44792688-4.18785187-14.96460556-6.27562412-25.54891723-6.27562414z m300.42774283-68.72306295v73.19118647h48.88363226L566.40077053 452.28132806h-32.62060243v6.6068034l52.54282797 31.0038656h-177.3543514l59.0864164-31.00330616V452.28132806H348.82547541V427.29742958l123.75477051-70.07854852H533.78072754zM468.05562051 430.41062697V388.80902351l-70.6329382 41.60160346h70.6329382z" fill="#FFFFFF" p-id="1295"></path></svg>