<svg t="1587452166747" class="icon" viewBox="0 0 1024 1024" version="1.1" xmlns="http://www.w3.org/2000/svg" p-id="1143" width="160" height="160"><path d="M42.20397036-45.19759013h1077.05584199c49.71026963 0 82.85044939 33.14017975 82.85044937 82.85044938v911.35494321c0 49.71026963-33.14017975 82.85044939-82.85044937 82.85044939H42.20397036c-49.71026963 0-82.85044939-33.14017975-82.85044938-82.85044939V37.65285925c0-49.71026963 33.14017975-82.85044939 82.85044938-82.85044938z" fill="#7FB945" p-id="1144"></path><path d="M-51.19999999 166.39999999h887.46666667c40.96 0 68.26666667 27.30666667 68.26666667 68.26666667v750.93333333c0 40.96-27.30666667 68.26666667-68.26666667 68.26666667H-51.19999999c-40.96 0-68.26666667-27.30666667-68.26666666-68.26666667V234.66666666c0-40.96 27.30666667-68.26666667 68.26666666-68.26666667z" fill="#C0EC95" p-id="1145"></path><path d="M693.33333334 352m-96 0a96 96 0 1 0 192 0 96 96 0 1 0-192 0Z" fill="#FFFFFF" p-id="1146"></path><path d="M853.33333334 736l-147.2-147.2-134.4 121.6L219.73333334 384 21.33333334 563.2V896h832z" fill="#FFFFFF" p-id="1147"></path></svg>