<svg t="1587451877021" class="icon" viewBox="0 0 1024 1024" version="1.1" xmlns="http://www.w3.org/2000/svg" p-id="1110" width="160" height="160"><path d="M949.0432-34.2016h-873.81333333c-60.07466667 0-109.22666667 49.152-109.22666667 109.22666667v873.81333333c0 60.07466667 49.152 109.22666667 109.22666667 109.22666667h873.81333333c60.07466667 0 109.22666667-49.152 109.22666667-109.22666667v-873.81333333c0-60.07466667-49.152-109.22666667-109.22666667-109.22666667z m-779.60533333 681.984c0 57.344-39.59466667 84.65066667-81.23733334 84.65066667-19.79733333 0-38.912-6.144-53.93066666-16.384l18.432-45.73866667c9.55733333 6.82666667 20.48 10.24 30.03733333 10.24 15.01866667 0 27.30666667-9.55733333 27.30666667-30.72v-253.26933333h59.392v251.22133333z m-30.03733334-285.35466667a34.13333333 34.13333333 0 0 1-34.816-34.816c0-21.16266667 15.01866667-35.49866667 34.816-35.49866666 21.84533333 0 36.18133333 14.336 36.18133334 35.49866666 0 19.79733333-14.336 34.816-36.18133334 34.816z m178.85866667 280.576c-36.864 0-75.09333333-11.60533333-100.352-34.13333333l20.48-41.64266667c22.528 19.11466667 55.97866667 30.72 82.60266667 30.72 20.48 0 36.18133333-7.50933333 36.18133333-23.21066666 0-45.056-127.65866667-20.48-126.976-107.17866667 0-50.51733333 43.008-73.728 92.16-73.728 32.08533333 0 64.85333333 9.55733333 89.42933333 25.94133333l-21.84533333 43.008c-23.21066667-13.65333333-50.51733333-21.84533333-71.68-21.84533333-19.11466667 0-32.768 6.144-32.768 21.16266667 0 40.96 129.70666667 19.79733333 129.70666667 107.17866666 0 49.83466667-44.37333333 73.728-96.93866667 73.728z m253.952 0c-77.14133333 0-129.024-49.83466667-129.024-124.24533333 0-73.728 51.88266667-123.56266667 129.024-123.56266667 76.45866667 0 128.34133333 49.83466667 128.34133333 123.56266667 0 74.41066667-51.88266667 124.24533333-128.34133333 124.24533333z m417.792-2.048h-60.07466667v-135.168c0-34.13333333-20.48-55.296-53.93066666-55.296-40.27733333 0.68266667-64.17066667 30.03733333-64.17066667 70.31466667v120.14933333h-59.392v-244.39466666h59.392v45.73866666c17.06666667-32.08533333 47.78666667-47.104 87.38133333-47.78666666 56.66133333 0 90.79466667 36.18133333 90.79466667 94.208v152.23466666z" fill="#EF8A46" p-id="1111"></path><path d="M568.448 449.856c-38.4 0-64.64 28.16-64.64 69.12s26.24 69.76 64.64 69.76c37.76 0 64.64-28.8 64.64-69.76s-26.88-69.12-64.64-69.12z" fill="#EF8A46" p-id="1112"></path></svg>